<?xml version="1.0" encoding="utf-8"?>
<!-- Generator: Adobe Illustrator 19.0.0, SVG Export Plug-In . SVG Version: 6.00 Build 0)  -->
<svg version="1.1" id="Objects" xmlns="http://www.w3.org/2000/svg" xmlns:xlink="http://www.w3.org/1999/xlink" x="0px" y="0px"
	 viewBox="0 0 750 500" enable-background="new 0 0 750 500" xml:space="preserve">
<path opacity="0.2" fill="#419B84" d="M620.1,500H112.9c-11.3-54.2,12.8-111.3,72.3-153c100.1-70.1,262.4-70.1,362.5,0
	C607.3,388.7,631.5,445.8,620.1,500z"/>
<g>
	<polygon fill="#EBF0FF" points="522,218.9 385.8,140.4 385.8,135.8 522,214.3 	"/>
	<polygon fill="#EBF0FF" points="376.2,199.1 240,120.6 240,115.9 376.2,194.4 	"/>
	<polygon fill="#EBF0FF" points="569.6,147.8 423.6,63.6 423.6,59 569.6,143.2 	"/>
	<polygon fill="#EBF0FF" points="475.6,103.2 423.6,73.3 423.6,68.7 475.6,98.6 	"/>
	<polygon fill="#EBF0FF" points="353.9,112 301.9,82.1 301.9,77.4 353.9,107.4 	"/>
	<polygon fill="#EBF0FF" points="273.9,109.2 231.8,84.9 231.8,80.3 273.9,104.6 	"/>
	<polygon fill="#EBF0FF" points="495.6,175.2 325.3,76.9 325.3,72.2 495.6,170.5 	"/>
</g>
<g>
	<g>
		<path fill="#419B84" d="M415.9,307.1l5,100.8c0,0.8,0.5,1.5,1.1,1.9l0,0c1.6,1,3.7-0.1,3.7-2l0.9-100.1c0-1.2-0.9-2.3-2.1-2.4
			l-5.9-0.7C417.1,304.4,415.8,305.6,415.9,307.1z"/>
		<path fill="#419B84" d="M425.7,305.3l-2.1,103.5c0,2.1,4.5,1.6,6.1,0.4l0.3-0.2c0.6-0.4,1-1.2,1-1.9l5.1-100.3
			c0.1-1.2-0.8-2.3-1.9-2.6l-5.4-1.3C427.2,302.5,425.7,303.7,425.7,305.3z"/>
	</g>
	<g>
		<polygon fill="#205143" points="477.5,278.2 481.1,279.6 481.1,284 477.5,284 		"/>
		<path fill="#205143" d="M370.2,334.3l-164.5-95.5l95-50.2c6.4-3.4,14.2-3.3,20.5,0.4L479,280.6c2.9,1.7,2.8,5.9-0.1,7.5
			l-88.2,46.7C384.3,338.1,376.5,338,370.2,334.3z"/>
		<path fill="#419B84" d="M370.2,329.3l-164.5-95.5l95-50.2c6.4-3.4,14.2-3.3,20.5,0.4L479,275.6c2.9,1.7,2.8,5.9-0.1,7.5
			l-88.2,46.7C384.2,333.2,376.5,333,370.2,329.3z"/>
	</g>
</g>
<g>
	<polygon fill="#D7ECFA" points="379.4,266.4 379.4,268.5 351.2,284.9 351.2,282.8 	"/>
	<polygon fill="#D7ECFA" points="351.2,282.8 351.2,284.9 288.9,248.9 288.9,246.8 	"/>
	<polygon fill="#EEF8FC" points="379.4,266.4 351.2,282.8 288.9,246.8 317,230.4 	"/>
	<g>
		<g enable-background="new    ">
			<g>
				<polygon fill="#D7ECFA" points="320.9,234.5 320.9,235.8 317,238 317,236.8 				"/>
			</g>
			<g>
				<polygon fill="#D7ECFA" points="317,236.8 317,238 313.1,235.8 313.1,234.6 				"/>
			</g>
			<g>
				<polygon fill="#FFFFFF" points="320.9,234.5 317,236.8 313.1,234.6 317,232.3 				"/>
			</g>
		</g>
		<g enable-background="new    ">
			<g>
				<polygon fill="#D7ECFA" points="325.8,237.4 325.8,238.6 321.9,240.9 321.9,239.6 				"/>
			</g>
			<g>
				<polygon fill="#D7ECFA" points="321.9,239.6 321.9,240.9 318,238.7 318,237.4 				"/>
			</g>
			<g>
				<polygon fill="#FFFFFF" points="325.8,237.4 321.9,239.6 318,237.4 321.9,235.1 				"/>
			</g>
		</g>
		<g enable-background="new    ">
			<g>
				<polygon fill="#D7ECFA" points="330.7,240.2 330.7,241.5 326.8,243.7 326.8,242.5 				"/>
			</g>
			<g>
				<polygon fill="#D7ECFA" points="326.8,242.5 326.8,243.7 323,241.5 323,240.3 				"/>
			</g>
			<g>
				<polygon fill="#FFFFFF" points="330.7,240.2 326.8,242.5 323,240.3 326.9,238 				"/>
			</g>
		</g>
		<g enable-background="new    ">
			<g>
				<polygon fill="#D7ECFA" points="335.6,243.1 335.6,244.3 331.7,246.6 331.7,245.3 				"/>
			</g>
			<g>
				<polygon fill="#D7ECFA" points="331.7,245.3 331.7,246.6 327.9,244.3 327.9,243.1 				"/>
			</g>
			<g>
				<polygon fill="#FFFFFF" points="335.6,243.1 331.7,245.3 327.9,243.1 331.8,240.8 				"/>
			</g>
		</g>
		<g enable-background="new    ">
			<g>
				<polygon fill="#D7ECFA" points="340.6,245.9 340.6,247.1 336.7,249.4 336.7,248.2 				"/>
			</g>
			<g>
				<polygon fill="#D7ECFA" points="336.7,248.2 336.7,249.4 332.8,247.2 332.8,245.9 				"/>
			</g>
			<g>
				<polygon fill="#FFFFFF" points="340.6,245.9 336.7,248.2 332.8,245.9 336.7,243.7 				"/>
			</g>
		</g>
		<g enable-background="new    ">
			<g>
				<polygon fill="#D7ECFA" points="345.5,248.7 345.5,250 341.6,252.3 341.6,251 				"/>
			</g>
			<g>
				<polygon fill="#D7ECFA" points="341.6,251 341.6,252.3 337.8,250 337.8,248.8 				"/>
			</g>
			<g>
				<polygon fill="#FFFFFF" points="345.5,248.7 341.6,251 337.8,248.8 341.7,246.5 				"/>
			</g>
		</g>
		<g enable-background="new    ">
			<g>
				<polygon fill="#D7ECFA" points="350.4,251.6 350.4,252.8 346.5,255.1 346.5,253.9 				"/>
			</g>
			<g>
				<polygon fill="#D7ECFA" points="346.5,253.9 346.5,255.1 342.7,252.9 342.7,251.6 				"/>
			</g>
			<g>
				<polygon fill="#FFFFFF" points="350.4,251.6 346.5,253.9 342.7,251.6 346.6,249.4 				"/>
			</g>
		</g>
		<g enable-background="new    ">
			<g>
				<polygon fill="#D7ECFA" points="355.4,254.4 355.4,255.7 351.5,257.9 351.5,256.7 				"/>
			</g>
			<g>
				<polygon fill="#D7ECFA" points="351.5,256.7 351.5,257.9 347.6,255.7 347.6,254.5 				"/>
			</g>
			<g>
				<polygon fill="#FFFFFF" points="355.4,254.4 351.5,256.7 347.6,254.5 351.5,252.2 				"/>
			</g>
		</g>
		<g enable-background="new    ">
			<g>
				<polygon fill="#D7ECFA" points="360.3,257.3 360.3,258.5 356.4,260.8 356.4,259.6 				"/>
			</g>
			<g>
				<polygon fill="#D7ECFA" points="356.4,259.6 356.4,260.8 352.5,258.6 352.5,257.3 				"/>
			</g>
			<g>
				<polygon fill="#FFFFFF" points="360.3,257.3 356.4,259.6 352.5,257.3 356.4,255.1 				"/>
			</g>
		</g>
		<g enable-background="new    ">
			<g>
				<polygon fill="#D7ECFA" points="365.2,260.1 365.2,261.4 361.3,263.6 361.3,262.4 				"/>
			</g>
			<g>
				<polygon fill="#D7ECFA" points="361.3,262.4 361.3,263.6 357.5,261.4 357.5,260.2 				"/>
			</g>
			<g>
				<polygon fill="#FFFFFF" points="365.2,260.1 361.3,262.4 357.5,260.2 361.4,257.9 				"/>
			</g>
		</g>
		<g enable-background="new    ">
			<g>
				<polygon fill="#D7ECFA" points="375.1,265.8 375.1,267.1 371.2,269.3 371.2,268.1 				"/>
			</g>
			<g>
				<polygon fill="#D7ECFA" points="371.2,268.1 371.2,269.3 362.4,264.3 362.4,263 				"/>
			</g>
			<g>
				<polygon fill="#FFFFFF" points="375.1,265.8 371.2,268.1 362.4,263 366.3,260.8 				"/>
			</g>
		</g>
		<g enable-background="new    ">
			<g>
				<polygon fill="#D7ECFA" points="320.8,240.3 320.8,241.5 316.9,243.8 316.9,242.5 				"/>
			</g>
			<g>
				<polygon fill="#D7ECFA" points="316.9,242.5 316.9,243.8 308.1,238.7 308.1,237.5 				"/>
			</g>
			<g>
				<polygon fill="#FFFFFF" points="320.8,240.3 316.9,242.5 308.1,237.5 312,235.2 				"/>
			</g>
		</g>
		<g enable-background="new    ">
			<g>
				<polygon fill="#D7ECFA" points="325.7,243.1 325.7,244.3 321.8,246.6 321.8,245.4 				"/>
			</g>
			<g>
				<polygon fill="#D7ECFA" points="321.8,245.4 321.8,246.6 318,244.4 318,243.1 				"/>
			</g>
			<g>
				<polygon fill="#FFFFFF" points="325.7,243.1 321.8,245.4 318,243.1 321.9,240.9 				"/>
			</g>
		</g>
		<g enable-background="new    ">
			<g>
				<polygon fill="#D7ECFA" points="330.7,245.9 330.7,247.2 326.8,249.5 326.8,248.2 				"/>
			</g>
			<g>
				<polygon fill="#D7ECFA" points="326.8,248.2 326.8,249.5 322.9,247.2 322.9,246 				"/>
			</g>
			<g>
				<polygon fill="#FFFFFF" points="330.7,245.9 326.8,248.2 322.9,246 326.8,243.7 				"/>
			</g>
		</g>
		<g enable-background="new    ">
			<g>
				<polygon fill="#D7ECFA" points="335.6,248.8 335.6,250 331.7,252.3 331.7,251.1 				"/>
			</g>
			<g>
				<polygon fill="#D7ECFA" points="331.7,251.1 331.7,252.3 327.9,250.1 327.9,248.8 				"/>
			</g>
			<g>
				<polygon fill="#FFFFFF" points="335.6,248.8 331.7,251.1 327.9,248.8 331.8,246.6 				"/>
			</g>
		</g>
		<g enable-background="new    ">
			<g>
				<polygon fill="#D7ECFA" points="340.5,251.6 340.5,252.9 336.6,255.1 336.6,253.9 				"/>
			</g>
			<g>
				<polygon fill="#D7ECFA" points="336.6,253.9 336.6,255.1 332.8,252.9 332.8,251.7 				"/>
			</g>
			<g>
				<polygon fill="#FFFFFF" points="340.5,251.6 336.6,253.9 332.8,251.7 336.7,249.4 				"/>
			</g>
		</g>
		<g enable-background="new    ">
			<g>
				<polygon fill="#D7ECFA" points="345.5,254.5 345.5,255.7 341.6,258 341.6,256.7 				"/>
			</g>
			<g>
				<polygon fill="#D7ECFA" points="341.6,256.7 341.6,258 337.7,255.8 337.7,254.5 				"/>
			</g>
			<g>
				<polygon fill="#FFFFFF" points="345.5,254.5 341.6,256.7 337.7,254.5 341.6,252.3 				"/>
			</g>
		</g>
		<g enable-background="new    ">
			<g>
				<polygon fill="#D7ECFA" points="350.4,257.3 350.4,258.6 346.5,260.8 346.5,259.6 				"/>
			</g>
			<g>
				<polygon fill="#D7ECFA" points="346.5,259.6 346.5,260.8 342.6,258.6 342.6,257.4 				"/>
			</g>
			<g>
				<polygon fill="#FFFFFF" points="350.4,257.3 346.5,259.6 342.6,257.4 346.5,255.1 				"/>
			</g>
		</g>
		<g enable-background="new    ">
			<g>
				<polygon fill="#D7ECFA" points="355.3,260.2 355.3,261.4 351.4,263.7 351.4,262.4 				"/>
			</g>
			<g>
				<polygon fill="#D7ECFA" points="351.4,262.4 351.4,263.7 347.6,261.5 347.6,260.2 				"/>
			</g>
			<g>
				<polygon fill="#FFFFFF" points="355.3,260.2 351.4,262.4 347.6,260.2 351.5,258 				"/>
			</g>
		</g>
		<g enable-background="new    ">
			<g>
				<polygon fill="#D7ECFA" points="360.2,263 360.2,264.3 356.3,266.5 356.3,265.3 				"/>
			</g>
			<g>
				<polygon fill="#D7ECFA" points="356.3,265.3 356.3,266.5 352.5,264.3 352.5,263.1 				"/>
			</g>
			<g>
				<polygon fill="#FFFFFF" points="360.2,263 356.3,265.3 352.5,263.1 356.4,260.8 				"/>
			</g>
		</g>
		<g enable-background="new    ">
			<g>
				<polygon fill="#D7ECFA" points="365.2,265.9 365.2,267.1 361.3,269.4 361.3,268.1 				"/>
			</g>
			<g>
				<polygon fill="#D7ECFA" points="361.3,268.1 361.3,269.4 357.4,267.1 357.4,265.9 				"/>
			</g>
			<g>
				<polygon fill="#FFFFFF" points="365.2,265.9 361.3,268.1 357.4,265.9 361.3,263.6 				"/>
			</g>
		</g>
		<g enable-background="new    ">
			<g>
				<polygon fill="#D7ECFA" points="370.1,268.7 370.1,270 366.2,272.2 366.2,271 				"/>
			</g>
			<g>
				<polygon fill="#D7ECFA" points="366.2,271 366.2,272.2 362.4,270 362.4,268.8 				"/>
			</g>
			<g>
				<polygon fill="#FFFFFF" points="370.1,268.7 366.2,271 362.4,268.8 366.3,266.5 				"/>
			</g>
		</g>
		<g enable-background="new    ">
			<g>
				<polygon fill="#D7ECFA" points="315.9,243.1 315.8,244.4 311.9,246.7 312,245.4 				"/>
			</g>
			<g>
				<polygon fill="#D7ECFA" points="312,245.4 311.9,246.7 303.2,241.6 303.2,240.3 				"/>
			</g>
			<g>
				<polygon fill="#FFFFFF" points="315.9,243.1 312,245.4 303.2,240.3 307.1,238.1 				"/>
			</g>
		</g>
		<g enable-background="new    ">
			<g>
				<polygon fill="#D7ECFA" points="320.8,246 320.8,247.2 316.9,249.5 316.9,248.3 				"/>
			</g>
			<g>
				<polygon fill="#D7ECFA" points="316.9,248.3 316.9,249.5 313,247.3 313,246 				"/>
			</g>
			<g>
				<polygon fill="#FFFFFF" points="320.8,246 316.9,248.3 313,246 316.9,243.8 				"/>
			</g>
		</g>
		<g enable-background="new    ">
			<g>
				<polygon fill="#D7ECFA" points="325.7,248.8 325.7,250.1 321.8,252.3 321.8,251.1 				"/>
			</g>
			<g>
				<polygon fill="#D7ECFA" points="321.8,251.1 321.8,252.3 318,250.1 318,248.9 				"/>
			</g>
			<g>
				<polygon fill="#FFFFFF" points="325.7,248.8 321.8,251.1 318,248.9 321.9,246.6 				"/>
			</g>
		</g>
		<g enable-background="new    ">
			<g>
				<polygon fill="#D7ECFA" points="330.6,251.7 330.6,252.9 326.7,255.2 326.7,253.9 				"/>
			</g>
			<g>
				<polygon fill="#D7ECFA" points="326.7,253.9 326.7,255.2 322.9,253 322.9,251.7 				"/>
			</g>
			<g>
				<polygon fill="#FFFFFF" points="330.6,251.7 326.7,253.9 322.9,251.7 326.8,249.5 				"/>
			</g>
		</g>
		<g enable-background="new    ">
			<g>
				<polygon fill="#D7ECFA" points="335.6,254.5 335.6,255.8 331.7,258 331.7,256.8 				"/>
			</g>
			<g>
				<polygon fill="#D7ECFA" points="331.7,256.8 331.7,258 327.8,255.8 327.8,254.6 				"/>
			</g>
			<g>
				<polygon fill="#FFFFFF" points="335.6,254.5 331.7,256.8 327.8,254.6 331.7,252.3 				"/>
			</g>
		</g>
		<g enable-background="new    ">
			<g>
				<polygon fill="#D7ECFA" points="340.5,257.4 340.5,258.6 336.6,260.9 336.6,259.6 				"/>
			</g>
			<g>
				<polygon fill="#D7ECFA" points="336.6,259.6 336.6,260.9 332.7,258.7 332.7,257.4 				"/>
			</g>
			<g>
				<polygon fill="#FFFFFF" points="340.5,257.4 336.6,259.6 332.7,257.4 336.6,255.1 				"/>
			</g>
		</g>
		<g enable-background="new    ">
			<g>
				<polygon fill="#D7ECFA" points="345.4,260.2 345.4,261.5 341.5,263.7 341.5,262.5 				"/>
			</g>
			<g>
				<polygon fill="#D7ECFA" points="341.5,262.5 341.5,263.7 337.7,261.5 337.7,260.3 				"/>
			</g>
			<g>
				<polygon fill="#FFFFFF" points="345.4,260.2 341.5,262.5 337.7,260.3 341.6,258 				"/>
			</g>
		</g>
		<g enable-background="new    ">
			<g>
				<polygon fill="#D7ECFA" points="350.4,263.1 350.3,264.3 346.4,266.6 346.5,265.3 				"/>
			</g>
			<g>
				<polygon fill="#D7ECFA" points="346.5,265.3 346.4,266.6 342.6,264.3 342.6,263.1 				"/>
			</g>
			<g>
				<polygon fill="#FFFFFF" points="350.4,263.1 346.5,265.3 342.6,263.1 346.5,260.8 				"/>
			</g>
		</g>
		<g enable-background="new    ">
			<g>
				<polygon fill="#D7ECFA" points="355.3,265.9 355.3,267.1 351.4,269.4 351.4,268.2 				"/>
			</g>
			<g>
				<polygon fill="#D7ECFA" points="351.4,268.2 351.4,269.4 347.5,267.2 347.5,266 				"/>
			</g>
			<g>
				<polygon fill="#FFFFFF" points="355.3,265.9 351.4,268.2 347.5,266 351.4,263.7 				"/>
			</g>
		</g>
		<g enable-background="new    ">
			<g>
				<polygon fill="#D7ECFA" points="365.1,271.6 365.1,272.8 361.2,275.1 361.2,273.9 				"/>
			</g>
			<g>
				<polygon fill="#D7ECFA" points="361.2,273.9 361.2,275.1 352.5,270 352.5,268.8 				"/>
			</g>
			<g>
				<polygon fill="#FFFFFF" points="365.1,271.6 361.2,273.9 352.5,268.8 356.4,266.5 				"/>
			</g>
		</g>
		<g enable-background="new    ">
			<g>
				<polygon fill="#D7ECFA" points="315.8,248.9 315.8,250.1 311.9,252.4 311.9,251.1 				"/>
			</g>
			<g>
				<polygon fill="#D7ECFA" points="311.9,251.1 311.9,252.4 298.2,244.5 298.2,243.2 				"/>
			</g>
			<g>
				<polygon fill="#FFFFFF" points="315.8,248.9 311.9,251.1 298.2,243.2 302.1,241 				"/>
			</g>
		</g>
		<g enable-background="new    ">
			<g>
				<polygon fill="#D7ECFA" points="320.7,251.7 320.7,253 316.8,255.2 316.8,254 				"/>
			</g>
			<g>
				<polygon fill="#D7ECFA" points="316.8,254 316.8,255.2 313,253 313,251.8 				"/>
			</g>
			<g>
				<polygon fill="#FFFFFF" points="320.7,251.7 316.8,254 313,251.8 316.9,249.5 				"/>
			</g>
		</g>
		<g enable-background="new    ">
			<g>
				<polygon fill="#D7ECFA" points="325.7,254.6 325.7,255.8 321.8,258.1 321.8,256.8 				"/>
			</g>
			<g>
				<polygon fill="#D7ECFA" points="321.8,256.8 321.8,258.1 317.9,255.9 317.9,254.6 				"/>
			</g>
			<g>
				<polygon fill="#FFFFFF" points="325.7,254.6 321.8,256.8 317.9,254.6 321.8,252.4 				"/>
			</g>
		</g>
		<g enable-background="new    ">
			<g>
				<polygon fill="#D7ECFA" points="330.6,257.4 330.6,258.7 326.7,260.9 326.7,259.7 				"/>
			</g>
			<g>
				<polygon fill="#D7ECFA" points="326.7,259.7 326.7,260.9 322.8,258.7 322.8,257.5 				"/>
			</g>
			<g>
				<polygon fill="#FFFFFF" points="330.6,257.4 326.7,259.7 322.8,257.5 326.7,255.2 				"/>
			</g>
		</g>
		<g enable-background="new    ">
			<g>
				<polygon fill="#D7ECFA" points="335.5,260.3 335.5,261.5 331.6,263.8 331.6,262.5 				"/>
			</g>
			<g>
				<polygon fill="#D7ECFA" points="331.6,262.5 331.6,263.8 327.8,261.6 327.8,260.3 				"/>
			</g>
			<g>
				<polygon fill="#FFFFFF" points="335.5,260.3 331.6,262.5 327.8,260.3 331.7,258 				"/>
			</g>
		</g>
		<g enable-background="new    ">
			<g>
				<polygon fill="#D7ECFA" points="340.4,263.1 340.4,264.4 336.5,266.6 336.5,265.4 				"/>
			</g>
			<g>
				<polygon fill="#D7ECFA" points="336.5,265.4 336.5,266.6 332.7,264.4 332.7,263.2 				"/>
			</g>
			<g>
				<polygon fill="#FFFFFF" points="340.4,263.1 336.5,265.4 332.7,263.2 336.6,260.9 				"/>
			</g>
		</g>
		<g enable-background="new    ">
			<g>
				<polygon fill="#D7ECFA" points="345.4,266 345.4,267.2 341.5,269.5 341.5,268.2 				"/>
			</g>
			<g>
				<polygon fill="#D7ECFA" points="341.5,268.2 341.5,269.5 337.6,267.2 337.6,266 				"/>
			</g>
			<g>
				<polygon fill="#FFFFFF" points="345.4,266 341.5,268.2 337.6,266 341.5,263.7 				"/>
			</g>
		</g>
		<g enable-background="new    ">
			<g>
				<polygon fill="#D7ECFA" points="350.3,268.8 350.3,270 346.4,272.3 346.4,271.1 				"/>
			</g>
			<g>
				<polygon fill="#D7ECFA" points="346.4,271.1 346.4,272.3 342.5,270.1 342.6,268.8 				"/>
			</g>
			<g>
				<polygon fill="#FFFFFF" points="350.3,268.8 346.4,271.1 342.6,268.8 346.5,266.6 				"/>
			</g>
		</g>
		<g enable-background="new    ">
			<g>
				<polygon fill="#D7ECFA" points="360.2,274.5 360.2,275.7 356.3,278 356.3,276.8 				"/>
			</g>
			<g>
				<polygon fill="#D7ECFA" points="356.3,276.8 356.3,278 347.5,272.9 347.5,271.7 				"/>
			</g>
			<g>
				<polygon fill="#FFFFFF" points="360.2,274.5 356.3,276.8 347.5,271.7 351.4,269.4 				"/>
			</g>
		</g>
		<g enable-background="new    ">
			<g>
				<polygon fill="#D7ECFA" points="301,246.1 301,247.3 297.1,249.6 297.1,248.3 				"/>
			</g>
			<g>
				<polygon fill="#D7ECFA" points="297.1,248.3 297.1,249.6 293.2,247.4 293.2,246.1 				"/>
			</g>
			<g>
				<polygon fill="#FFFFFF" points="301,246.1 297.1,248.3 293.2,246.1 297.1,243.9 				"/>
			</g>
		</g>
		<g enable-background="new    ">
			<g>
				<polygon fill="#D7ECFA" points="305.9,248.9 305.9,250.2 302,252.4 302,251.2 				"/>
			</g>
			<g>
				<polygon fill="#D7ECFA" points="302,251.2 302,252.4 298.2,250.2 298.2,249 				"/>
			</g>
			<g>
				<polygon fill="#FFFFFF" points="305.9,248.9 302,251.2 298.2,249 302.1,246.7 				"/>
			</g>
		</g>
		<g enable-background="new    ">
			<g>
				<polygon fill="#D7ECFA" points="310.8,251.8 310.8,253 306.9,255.3 306.9,254 				"/>
			</g>
			<g>
				<polygon fill="#D7ECFA" points="306.9,254 306.9,255.3 303.1,253.1 303.1,251.8 				"/>
			</g>
			<g>
				<polygon fill="#FFFFFF" points="310.8,251.8 306.9,254 303.1,251.8 307,249.6 				"/>
			</g>
		</g>
		<g enable-background="new    ">
			<g>
				<polygon fill="#D7ECFA" points="335.5,266 335.5,267.2 331.6,269.5 331.6,268.3 				"/>
			</g>
			<g>
				<polygon fill="#D7ECFA" points="331.6,268.3 331.6,269.5 308,255.9 308,254.7 				"/>
			</g>
			<g>
				<polygon fill="#FFFFFF" points="335.5,266 331.6,268.3 308,254.7 311.9,252.4 				"/>
			</g>
		</g>
		<g enable-background="new    ">
			<g>
				<polygon fill="#D7ECFA" points="340.4,268.8 340.4,270.1 336.5,272.4 336.5,271.1 				"/>
			</g>
			<g>
				<polygon fill="#D7ECFA" points="336.5,271.1 336.5,272.4 332.7,270.1 332.7,268.9 				"/>
			</g>
			<g>
				<polygon fill="#FFFFFF" points="340.4,268.8 336.5,271.1 332.7,268.9 336.6,266.6 				"/>
			</g>
		</g>
		<g enable-background="new    ">
			<g>
				<polygon fill="#D7ECFA" points="345.3,271.7 345.3,272.9 341.4,275.2 341.4,274 				"/>
			</g>
			<g>
				<polygon fill="#D7ECFA" points="341.4,274 341.4,275.2 337.6,273 337.6,271.7 				"/>
			</g>
			<g>
				<polygon fill="#FFFFFF" points="345.3,271.7 341.4,274 337.6,271.7 341.5,269.5 				"/>
			</g>
		</g>
		<g enable-background="new    ">
			<g>
				<polygon fill="#D7ECFA" points="355.2,277.4 355.2,278.6 351.3,280.9 351.3,279.7 				"/>
			</g>
			<g>
				<polygon fill="#D7ECFA" points="351.3,279.7 351.3,280.9 342.5,275.8 342.5,274.6 				"/>
			</g>
			<g>
				<polygon fill="#FFFFFF" points="355.2,277.4 351.3,279.7 342.5,274.6 346.4,272.3 				"/>
			</g>
		</g>
	</g>
</g>
<g>
	<path fill="#00FFB6" d="M403,299.9c-5.2,3-13.6,3-18.8,0c-5.2-3-5.2-7.9,0-10.9c5.2-3,13.6-3,18.8,0
		C408.2,292,408.2,296.9,403,299.9z"/>
	<rect x="380.3" y="272.2" fill="#00FFB6" width="26.6" height="22.2"/>
	<path fill="#FFFFFF" d="M403,277.6c-5.2,3-13.6,3-18.8,0c-5.2-3-5.2-7.9,0-10.9c5.2-3,13.6-3,18.8,0
		C408.2,269.8,408.2,274.6,403,277.6z"/>
	<path fill="#EBEBEB" d="M403.7,273.9c-0.5,0.7-1.3,1.4-2.5,2c-4.1,2.1-10.8,2.1-15,0c-1.1-0.6-2-1.3-2.5-2
		c-1.4-1.9-0.5-4.2,2.5-5.7c4.1-2.1,10.8-2.1,15,0C404.3,269.7,405.1,271.9,403.7,273.9z"/>
	<path fill="#544438" d="M403.7,273.9c-0.5,0.7-1.3,1.4-2.5,2c-4.1,2.1-10.8,2.1-15,0c-1.1-0.6-2-1.3-2.5-2c0.5-0.7,1.3-1.4,2.5-2
		c4.1-2.1,10.8-2.1,15,0C402.4,272.5,403.2,273.1,403.7,273.9z"/>
</g>
<g>
	<polygon fill="#FFFFFF" points="294.2,232.7 261.8,214 307.7,187.5 340.1,206.2 	"/>
	<polygon fill="#215949" points="294.9,226.4 265.6,209.5 307,185.5 336.3,202.5 	"/>
</g>
<g>
	<polygon fill="#419B84" points="360.7,169.8 360.7,174.8 372.1,181.2 372.1,175.5 	"/>
	<g>
		<path fill="#295B4D" d="M363.5,253.1l-21.2-12.2c-1.4-0.8-1.4-2.8,0-3.5l24.1-13.9l27.2,15.7l-24.2,14
			C367.5,254.2,365.3,254.2,363.5,253.1z"/>
		<g>
			<path fill="#295B4D" d="M329,128l-3.1,2.1l3,76.6l98.3,60.1l2.8-1.9c0.4-0.3,0.7-0.8,0.7-1.3v-76c0-0.9-0.5-1.7-1.2-2.1
				L329.9,128C329.6,127.8,329.3,127.8,329,128z"/>
			<g>
				<path fill="#5DD8B4" d="M426,187.4c0.9,0.5,1.5,1.5,1.5,2.6v76c0,0.7-0.7,1.1-1.3,0.8l-98.1-56.6c-1.5-0.8-2.4-2.4-2.4-4.1
					v-75.4c0-0.5,0.5-0.8,0.9-0.5"/>
				<polygon fill="#FFFFFF" points="325.7,194.3 325.7,133.3 427.4,192 427.5,253 				"/>
				<polygon fill="#5DD8B4" points="342.8,152.6 336.7,149.1 336.7,147.6 342.8,151.1 				"/>
				<polygon fill="#5DD8B4" points="395.6,183.2 346.6,154.9 346.6,153.4 395.6,181.6 				"/>
				<polygon fill="#5DD8B4" points="416.1,195 399.9,185.6 399.9,184.1 416.1,193.5 				"/>
				<polygon fill="#5DD8B4" points="342.8,157.6 336.7,154.1 336.7,152.6 342.8,156.1 				"/>
				<polygon fill="#5DD8B4" points="395.6,188.1 346.6,159.8 346.6,158.3 395.6,186.6 				"/>
				<polygon fill="#5DD8B4" points="416.1,199.9 399.9,190.5 399.9,189 416.1,198.4 				"/>
				<polygon fill="#5DD8B4" points="342.8,162.5 336.7,159 336.7,157.5 342.8,161 				"/>
				<polygon fill="#5DD8B4" points="385.6,187.2 346.6,164.7 346.6,163.2 385.6,185.7 				"/>
				<polygon fill="#5DD8B4" points="416.1,204.8 389.6,189.6 389.6,188.1 416.1,203.3 				"/>
				<polygon fill="#5DD8B4" points="342.8,167.4 336.7,163.9 336.7,162.4 342.8,165.9 				"/>
				<polygon fill="#5DD8B4" points="402.7,202 346.6,169.7 346.6,168.2 402.7,200.5 				"/>
				<polygon fill="#5DD8B4" points="416.1,209.8 399.9,200.4 399.9,198.9 416.1,208.3 				"/>
				<polygon fill="#5DD8B4" points="342.8,172.3 336.7,168.8 336.7,167.3 342.8,170.8 				"/>
				<polygon fill="#5DD8B4" points="395.6,202.9 346.6,174.6 346.6,173.1 395.6,201.4 				"/>
				<polygon fill="#5DD8B4" points="416.1,214.7 399.9,205.3 399.9,203.8 416.1,213.2 				"/>
				<polygon fill="#5DD8B4" points="342.8,177.3 336.7,173.8 336.7,172.3 342.8,175.8 				"/>
				<polygon fill="#5DD8B4" points="381.5,199.6 346.6,179.5 346.6,178 381.5,198.1 				"/>
				<polygon fill="#5DD8B4" points="416.1,219.6 413.3,218 413.3,216.5 416.1,218.1 				"/>
				<polygon fill="#5DD8B4" points="409.3,215.7 399.9,210.2 399.9,208.7 409.3,214.2 				"/>
				<polygon fill="#5DD8B4" points="342.8,182.2 336.7,178.7 336.7,177.2 342.8,180.7 				"/>
				<polygon fill="#5DD8B4" points="388.1,208.4 346.6,184.4 346.6,182.9 388.1,206.9 				"/>
				<polygon fill="#5DD8B4" points="416.1,224.5 392.1,210.7 392.1,209.2 416.1,223 				"/>
				<polygon fill="#5DD8B4" points="342.8,187.1 336.7,183.6 336.7,182.1 342.8,185.6 				"/>
				<polygon fill="#5DD8B4" points="370.1,202.9 346.6,189.4 346.6,187.9 370.1,201.4 				"/>
				<polygon fill="#5DD8B4" points="416.1,229.5 374.6,205.5 374.6,204 416.1,228 				"/>
				<polygon fill="#5DD8B4" points="342.8,192 336.7,188.5 336.7,187 342.8,190.5 				"/>
				<polygon fill="#5DD8B4" points="395.6,222.6 346.6,194.3 346.6,192.8 395.6,221.1 				"/>
				<polygon fill="#5DD8B4" points="416.1,234.4 399.9,225 399.9,223.5 416.1,232.9 				"/>
			</g>
		</g>
	</g>
</g>
<g>
	<polygon fill="#6AE5C2" points="460.9,170.4 383,126.1 383,87.6 460.9,131.9 	"/>
	<g>
		<path fill="#1B3F35" d="M403.7,109.2v19.2l-2.5-1.4v-8.6l-8.7-5v8.6l-2.5-1.4v-19.2l2.5,1.4v8.5l8.7,5v-8.5L403.7,109.2z"/>
		<path fill="#1B3F35" d="M419.1,120.4l-5.3-3v16.8l-2.5-1.4V116l-5.3-3.1v-2.4l13,7.5V120.4z"/>
		<path fill="#1B3F35" d="M439,129.5v19.2l-2.2-1.2v-13.7c0-0.2,0-0.4,0-0.6c0-0.2,0-0.5,0-0.7l-5.5,8.5c-0.2,0.3-0.5,0.4-0.9,0.1
			l-0.3-0.2c-0.4-0.2-0.7-0.6-0.9-1.2l-5.6-15c0,0.5,0.1,1,0.1,1.4v13.7l-2.2-1.2v-19.2l1.8,1.1c0.2,0.1,0.4,0.2,0.5,0.4
			c0.1,0.1,0.2,0.3,0.3,0.6l5.6,14.7c0.1,0.3,0.2,0.6,0.3,0.9c0.1,0.3,0.2,0.6,0.3,0.9c0.2-0.4,0.4-0.8,0.6-1.2l5.5-8.3
			c0.1-0.2,0.2-0.2,0.3-0.2c0.1,0,0.3,0.1,0.5,0.2L439,129.5z"/>
		<path fill="#1B3F35" d="M452.6,154.2v2.4l-9.5-5.5v-19.2l2.5,1.4v16.8L452.6,154.2z"/>
	</g>
</g>
<g>
	<polygon fill="#2D6B59" points="292.2,165.3 231.8,131.6 231.8,93.1 292.2,126.8 	"/>
	<g>
		<path fill="#59E2BB" d="M254.1,130.3c0.1,0.1,0.3,0.2,0.4,0.4l1,1.8c-0.7,0.5-1.5,0.8-2.5,0.7c-1-0.1-2.2-0.5-3.5-1.3
			c-1.2-0.7-2.3-1.6-3.3-2.6c-1-1-1.8-2.2-2.5-3.5c-0.7-1.3-1.2-2.6-1.6-4c-0.4-1.4-0.6-2.9-0.6-4.3c0-1.4,0.2-2.7,0.6-3.6
			c0.4-1,1-1.7,1.7-2.1c0.7-0.4,1.6-0.6,2.6-0.5c1,0.1,2.1,0.5,3.3,1.2c1.2,0.7,2.2,1.5,3.1,2.5c0.9,1,1.7,2,2.4,3.2l-0.8,0.9
			c-0.1,0.1-0.1,0.1-0.2,0.1c-0.1,0-0.2,0-0.3-0.1c-0.1-0.1-0.3-0.3-0.5-0.6c-0.2-0.3-0.5-0.6-0.8-1c-0.3-0.4-0.7-0.8-1.2-1.3
			c-0.5-0.4-1.1-0.9-1.8-1.3c-0.8-0.5-1.6-0.7-2.3-0.8c-0.7-0.1-1.3,0.1-1.8,0.4c-0.5,0.3-0.9,0.9-1.2,1.6c-0.3,0.8-0.4,1.7-0.4,2.9
			c0,1.2,0.1,2.3,0.4,3.4c0.3,1.1,0.7,2.1,1.2,3c0.5,0.9,1.1,1.7,1.8,2.5c0.7,0.7,1.4,1.3,2.2,1.8c0.5,0.3,0.9,0.5,1.3,0.6
			c0.4,0.2,0.7,0.3,1.1,0.3c0.3,0.1,0.6,0.1,0.9,0c0.3,0,0.6-0.1,0.8-0.3c0.1,0,0.1,0,0.2,0C253.9,130.2,254,130.2,254.1,130.3z"/>
		<path fill="#59E2BB" d="M266.5,125.5c-0.1,0.1-0.2,0.2-0.2,0.2c-0.1,0-0.2,0-0.3-0.1c-0.1-0.1-0.3-0.2-0.5-0.5
			c-0.2-0.2-0.4-0.5-0.7-0.9c-0.3-0.3-0.6-0.7-1-1c-0.4-0.4-0.8-0.7-1.3-1c-0.5-0.3-0.9-0.5-1.3-0.5c-0.4-0.1-0.7,0-0.9,0.1
			c-0.2,0.1-0.4,0.3-0.6,0.6c-0.1,0.3-0.2,0.6-0.2,1c0,0.5,0.1,1,0.3,1.5c0.2,0.5,0.5,0.9,0.9,1.4c0.4,0.5,0.8,0.9,1.3,1.4
			c0.5,0.5,1,0.9,1.4,1.4c0.5,0.5,1,1,1.4,1.5c0.5,0.5,0.9,1.1,1.3,1.7c0.4,0.6,0.7,1.2,0.9,1.9c0.2,0.7,0.3,1.4,0.3,2.2
			c0,0.8-0.1,1.6-0.4,2.2c-0.3,0.6-0.6,1-1.1,1.3c-0.5,0.3-1.1,0.4-1.8,0.3c-0.7-0.1-1.5-0.4-2.4-0.9c-0.5-0.3-1-0.7-1.6-1.1
			c-0.5-0.4-1-0.9-1.4-1.3c-0.4-0.5-0.9-1-1.3-1.5c-0.4-0.5-0.7-1.1-1-1.6l0.7-1c0.1-0.1,0.2-0.1,0.2-0.1c0.1,0,0.2,0,0.3,0.1
			c0.2,0.1,0.3,0.3,0.6,0.6c0.2,0.3,0.5,0.7,0.8,1.1c0.3,0.4,0.7,0.8,1.1,1.3c0.4,0.4,1,0.9,1.6,1.2c0.5,0.3,1,0.5,1.4,0.6
			c0.4,0.1,0.7,0,1-0.1c0.3-0.1,0.5-0.4,0.6-0.7c0.1-0.3,0.2-0.7,0.2-1.2c0-0.6-0.1-1.1-0.3-1.6c-0.2-0.5-0.5-1-0.9-1.4
			c-0.4-0.5-0.8-0.9-1.3-1.3c-0.5-0.4-1-0.9-1.4-1.4c-0.5-0.5-1-1-1.4-1.5c-0.5-0.5-0.9-1.1-1.3-1.7c-0.4-0.6-0.7-1.3-0.9-2
			c-0.2-0.7-0.3-1.5-0.3-2.4c0-0.7,0.1-1.3,0.3-1.8c0.2-0.5,0.6-0.9,1-1.1c0.4-0.2,1-0.3,1.6-0.2c0.6,0.1,1.4,0.4,2.2,0.8
			c0.9,0.5,1.8,1.2,2.6,2c0.8,0.8,1.5,1.7,2,2.7L266.5,125.5z"/>
		<path fill="#59E2BB" d="M279.1,132.8c-0.1,0.1-0.2,0.2-0.2,0.2c-0.1,0-0.2,0-0.3-0.1c-0.1-0.1-0.3-0.2-0.5-0.5
			c-0.2-0.3-0.4-0.5-0.7-0.9c-0.3-0.3-0.6-0.7-1-1c-0.4-0.4-0.8-0.7-1.3-1c-0.5-0.3-0.9-0.5-1.3-0.5c-0.4-0.1-0.7,0-0.9,0.1
			c-0.2,0.1-0.4,0.3-0.6,0.6c-0.1,0.3-0.2,0.6-0.2,1c0,0.5,0.1,1,0.3,1.5c0.2,0.5,0.5,0.9,0.9,1.4c0.4,0.5,0.8,0.9,1.3,1.4
			c0.5,0.5,1,0.9,1.4,1.4c0.5,0.5,1,1,1.4,1.5c0.5,0.5,0.9,1.1,1.3,1.7c0.4,0.6,0.7,1.2,0.9,1.9c0.2,0.7,0.3,1.4,0.3,2.2
			c0,0.8-0.1,1.6-0.4,2.2c-0.3,0.6-0.6,1-1.1,1.3c-0.5,0.3-1.1,0.4-1.8,0.3c-0.7-0.1-1.5-0.4-2.4-0.9c-0.5-0.3-1-0.7-1.6-1.1
			c-0.5-0.4-1-0.9-1.4-1.3c-0.4-0.5-0.9-1-1.3-1.5c-0.4-0.5-0.7-1.1-1-1.6l0.7-1c0.1-0.1,0.2-0.1,0.2-0.1c0.1,0,0.2,0,0.3,0.1
			c0.2,0.1,0.3,0.3,0.6,0.6c0.2,0.3,0.5,0.7,0.8,1.1c0.3,0.4,0.7,0.8,1.1,1.3c0.4,0.4,1,0.9,1.6,1.2c0.5,0.3,1,0.5,1.4,0.6
			c0.4,0.1,0.7,0,1-0.1c0.3-0.1,0.5-0.4,0.6-0.7c0.1-0.3,0.2-0.7,0.2-1.2c0-0.6-0.1-1.1-0.3-1.6c-0.2-0.5-0.5-1-0.9-1.4
			c-0.4-0.5-0.8-0.9-1.3-1.3c-0.5-0.4-1-0.9-1.4-1.4c-0.5-0.5-1-1-1.4-1.5c-0.5-0.5-0.9-1.1-1.3-1.7c-0.4-0.6-0.7-1.3-0.9-2
			c-0.2-0.7-0.3-1.5-0.3-2.4c0-0.7,0.1-1.3,0.3-1.8c0.2-0.5,0.6-0.9,1-1.1c0.4-0.2,1-0.3,1.6-0.2c0.6,0.1,1.4,0.4,2.2,0.8
			c0.9,0.5,1.8,1.2,2.6,2c0.8,0.8,1.5,1.7,2,2.7L279.1,132.8z"/>
	</g>
</g>
<g>
	<polygon fill="#306D5B" points="537.8,289.1 477.5,255.5 477.5,216.9 537.8,250.6 	"/>
	<g>
		<path fill="#55C4A4" d="M503.1,258.3c0.1,0.1,0.3,0.2,0.4,0.4l1,1.8c-0.7,0.5-1.5,0.8-2.5,0.7c-1-0.1-2.2-0.5-3.5-1.3
			c-1.2-0.7-2.3-1.6-3.3-2.6c-1-1-1.8-2.2-2.5-3.5c-0.7-1.3-1.2-2.6-1.6-4c-0.4-1.4-0.6-2.9-0.6-4.3c0-1.4,0.2-2.7,0.6-3.6
			c0.4-1,1-1.7,1.7-2.1c0.7-0.4,1.6-0.6,2.6-0.5c1,0.1,2.1,0.5,3.3,1.2c1.2,0.7,2.2,1.5,3.1,2.5c0.9,1,1.7,2,2.4,3.2l-0.8,0.9
			c-0.1,0.1-0.1,0.1-0.2,0.1c-0.1,0-0.2,0-0.3-0.1c-0.1-0.1-0.3-0.3-0.5-0.6c-0.2-0.3-0.5-0.6-0.8-1c-0.3-0.4-0.7-0.8-1.2-1.3
			c-0.5-0.4-1.1-0.9-1.8-1.3c-0.8-0.5-1.6-0.7-2.3-0.8c-0.7-0.1-1.3,0.1-1.8,0.4c-0.5,0.3-0.9,0.9-1.2,1.6c-0.3,0.8-0.4,1.7-0.4,2.9
			c0,1.2,0.1,2.3,0.4,3.4c0.3,1.1,0.7,2.1,1.2,3c0.5,0.9,1.1,1.7,1.8,2.5c0.7,0.7,1.4,1.3,2.2,1.8c0.5,0.3,0.9,0.5,1.3,0.6
			c0.4,0.2,0.7,0.3,1.1,0.3c0.3,0.1,0.6,0.1,0.9,0c0.3,0,0.6-0.1,0.8-0.3c0.1,0,0.1,0,0.2,0C502.9,258.2,503,258.2,503.1,258.3z"/>
		<g id="Hash">
			<polygon fill="#55C4A4" points="516.7,269.8 516.7,250.6 515.1,249.6 515.1,268.8 			"/>
			<polygon fill="#55C4A4" points="511.1,267 511.1,247.8 509.5,246.8 509.5,266 			"/>
			<polygon fill="#55C4A4" points="506.4,250.2 520.6,258.3 520.6,260.2 506.4,252 			"/>
			<polygon fill="#55C4A4" points="506.4,256.5 520.6,264.7 520.6,266.5 506.4,258.4 			"/>
		</g>
	</g>
</g>
<g>
	<polygon fill="#205143" points="572.4,160.3 530.9,137.1 530.9,98.6 572.4,121.8 	"/>
	<g>
		<path fill="#FFFFFF" d="M547.6,130c0,1.1-0.1,2-0.3,2.7c-0.2,0.7-0.6,1.3-1,1.6c-0.4,0.3-1,0.5-1.7,0.4c-0.7-0.1-1.4-0.3-2.3-0.8
			c-0.8-0.4-1.6-1-2.4-1.8l0.1-1.6c0-0.2,0.1-0.3,0.2-0.3c0.1-0.1,0.2,0,0.4,0.1c0.1,0.1,0.3,0.2,0.5,0.4c0.2,0.2,0.5,0.4,0.9,0.6
			c0.5,0.3,0.9,0.5,1.3,0.5c0.4,0.1,0.7,0,1-0.2c0.3-0.2,0.5-0.6,0.6-1c0.1-0.5,0.2-1.1,0.2-1.9v-12.6l2.5,1.4V130z"/>
		<path fill="#FFFFFF" d="M560.1,127.9c-0.1,0.1-0.2,0.2-0.2,0.2c-0.1,0-0.2,0-0.3-0.1c-0.1-0.1-0.3-0.2-0.5-0.5
			c-0.2-0.2-0.4-0.5-0.7-0.9c-0.3-0.3-0.6-0.7-1-1c-0.4-0.4-0.8-0.7-1.3-1c-0.5-0.3-0.9-0.5-1.3-0.5c-0.4-0.1-0.7,0-0.9,0.1
			c-0.2,0.1-0.4,0.3-0.6,0.6c-0.1,0.3-0.2,0.6-0.2,1c0,0.5,0.1,1,0.3,1.5c0.2,0.5,0.5,0.9,0.9,1.4c0.4,0.5,0.8,0.9,1.3,1.4
			c0.5,0.5,1,0.9,1.4,1.4c0.5,0.5,1,1,1.4,1.5c0.5,0.5,0.9,1.1,1.3,1.7c0.4,0.6,0.7,1.2,0.9,1.9c0.2,0.7,0.3,1.4,0.3,2.2
			c0,0.8-0.1,1.6-0.4,2.2c-0.3,0.6-0.6,1-1.1,1.3c-0.5,0.3-1.1,0.4-1.8,0.3s-1.5-0.4-2.4-0.9c-0.5-0.3-1-0.7-1.6-1.1
			c-0.5-0.4-1-0.9-1.4-1.3c-0.4-0.5-0.9-1-1.3-1.5c-0.4-0.5-0.7-1.1-1-1.6l0.7-1c0.1-0.1,0.2-0.1,0.2-0.1c0.1,0,0.2,0,0.3,0.1
			c0.2,0.1,0.3,0.3,0.6,0.6c0.2,0.3,0.5,0.7,0.8,1.1c0.3,0.4,0.7,0.8,1.1,1.3c0.4,0.4,1,0.9,1.6,1.2c0.5,0.3,1,0.5,1.4,0.6
			c0.4,0.1,0.7,0,1-0.1c0.3-0.1,0.5-0.4,0.6-0.7c0.1-0.3,0.2-0.7,0.2-1.2c0-0.6-0.1-1.1-0.3-1.6c-0.2-0.5-0.5-1-0.9-1.4
			c-0.4-0.5-0.8-0.9-1.3-1.3c-0.5-0.4-1-0.9-1.4-1.4c-0.5-0.5-1-1-1.4-1.5c-0.5-0.5-0.9-1.1-1.3-1.7c-0.4-0.6-0.7-1.3-0.9-2
			c-0.2-0.7-0.3-1.5-0.3-2.4c0-0.7,0.1-1.3,0.3-1.8c0.2-0.5,0.6-0.9,1-1.1c0.4-0.2,1-0.3,1.6-0.2c0.6,0.1,1.4,0.4,2.2,0.8
			c0.9,0.5,1.8,1.2,2.6,2c0.8,0.8,1.5,1.7,2,2.7L560.1,127.9z"/>
	</g>
</g>
<g>
	<path fill="#1C4237" d="M212.5,441.7c0,2.4-1.7,5.2-3.7,6.4c-2,1.2-3.7,0.2-3.7-2.1c0-2.4,1.7-5.2,3.7-6.4
		C210.8,438.4,212.5,439.3,212.5,441.7z"/>
	<path fill="#1C4237" d="M209.4,439.8c0.7,2.3,0,5.5-1.6,7.3c-1.6,1.8-3.5,1.3-4.2-0.9c-0.7-2.3,0-5.5,1.6-7.3
		C206.8,437.1,208.7,437.5,209.4,439.8z"/>
	<g>
		<path fill="#1F4C3F" d="M277.4,375.5c0,0,0.4,12.5,2.1,16.9c1.7,4.4,6,4,9.2,3.7c3.3-0.4,11.5-6.3,15.6-10.2
			c4-3.9,12.5-3.1,19.2-12.6c6.7-9.5,0-13.5-2.1-13.7c-2.1-0.2-13.2,8.7-22,5.2L277.4,375.5z"/>
		<path fill="#2D6656" d="M193.7,312.5c0,0,71.5-23.5,85.1-13.8c12.7,9.1,10.6,36.4,20.6,66c0.3,0.8,0.2,1.6-0.1,2.3
			c-1.5,3.5-7.1,12.9-22.1,10.4c0,0-8.3-21.7-14-44.3c0,0-55.7,35.9-68.4,26.6C182.1,350.6,193.7,312.5,193.7,312.5z"/>
		<polygon fill="#285B4C" points="164.6,414.8 211.6,406.5 207.3,441.5 211.6,442.6 219.8,406.5 263.6,424.5 266,422 224.4,402.3 
			255.9,387.8 252.4,386.2 217.5,398.1 199,386.2 194.3,387.3 211,401.2 165.6,411.3 		"/>
		<path fill="#1F4C3F" d="M170.5,410c0,2.4-1.7,5.2-3.7,6.4s-3.7,0.2-3.7-2.1c0-2.4,1.7-5.2,3.7-6.4S170.5,407.6,170.5,410z"/>
		<path fill="#1F4C3F" d="M172.2,411c0,2.4-1.7,5.2-3.7,6.4c-2,1.2-3.7,0.2-3.7-2.1c0-2.4,1.7-5.2,3.7-6.4
			C170.5,407.6,172.2,408.6,172.2,411z"/>
		<path fill="#1F4C3F" d="M267.7,420.8c0,2.4-1.7,5.2-3.7,6.4c-2,1.2-3.7,0.2-3.7-2.1c0-2.4,1.7-5.2,3.7-6.4
			S267.7,418.4,267.7,420.8z"/>
		<path fill="#1F4C3F" d="M265.6,419.4c0,2.4-1.7,5.2-3.7,6.4s-3.7,0.2-3.7-2.1c0-2.4,1.7-5.2,3.7-6.4
			C263.9,416.1,265.6,417,265.6,419.4z"/>
		<rect x="212.6" y="382.2" fill="#1F4C3F" width="8.4" height="20.6"/>
		<path fill="#1F4C3F" d="M312.2,386.2c0,0,0.4,12.5,2.1,16.9c1.7,4.4,6,4,9.2,3.7c3.3-0.4,11.5-6.3,15.6-10.2
			c4-3.9,12.5-3.1,19.2-12.6c6.7-9.5,0-13.5-2.1-13.7c-2.1-0.2-12.7,7.8-21.4,4.3L312.2,386.2z"/>
		<path fill="#2D6656" d="M228.7,321.2c0,0,71.5-23.5,85.1-13.8c12.9,9.2,10.6,37.1,20.9,67.1c0,0-4.3,14.7-22.6,11.7
			c0,0-8.3-21.7-14-44.3c0,0-55.7,35.9-68.4,26.6C217.1,359.2,228.7,321.2,228.7,321.2z"/>
		<path fill="#4EB799" d="M287.2,351.8c-2.5,13.6-25.7,30.3-66.1,36.3c-1.4,0.2-14.8,2.9-26.6,0.5c7.4-14.2,27-37.8,20.9-61.1
			C229.8,329.8,289.4,339.8,287.2,351.8z"/>
		<path fill="#2D6656" d="M215.3,330.6l8.6,8.8c2,12.2,9.4,24,20.6,24.9l57.4-19.6v-20L215.3,330.6z"/>
		<path fill="#1F4C3F" d="M234.7,241.4l-29.8-15.1c-3.1-1.6-6.5-2.4-9.9-2.4c-6.3,0.1-15.4,2.2-19,12.9
			c-5.7,17.1,12.7,86.4,12.7,86.4s18.5,22.9,33.1,21.8c14.6-1.1,35.7-13.4,35.7-23.7c0-7.3-5.7-41.9-9-61.1
			C247.2,252.1,242.1,245.1,234.7,241.4z"/>
		<g>
			<path fill="#13634C" stroke="#0B246E" stroke-width="0.75" stroke-miterlimit="10" d="M248.7,197.6c0.2,0,3.8,0.9,5.7,1.3
				c0.6,0.1,0.9,0.8,0.7,1.4l-1.2,2.8c-0.4,0.9-1.4,1.6-2.4,1.6h-4.3"/>
			<path fill="#FF8B91" d="M209.9,223.8l3.1-20l38.7-22.4v15.1c0,0.9-0.2,1.7-0.5,2.5l-0.7,1.9c-0.4,1.1-0.5,2.2-0.3,3.3l0.3,1.7
				c0.2,1.3,0.1,2.6-0.4,3.8l-3.5,8.3c-1.1,2.6-3.8,4.2-6.7,3.9l-5.5-0.7l-2.3,12.3L209.9,223.8z"/>
			<path fill="#13634C" d="M212,214.7l6.8,1.4c3.5,0.7,7-0.3,9.7-2.6l9.2-8.1v2.2l1.5-0.3c1.3-0.3,2.4-1.2,2.8-2.5l3.5-11.7
				c0,0,9.9-0.8,12.8-13c0,0-10.9-10.7-26.5-9.6c-15.6,1.1-21.3,14.1-21.3,14.1s-3.3-0.4-4.9,3.8c-1.2,3.4,2.3,18.2,3.7,23.8
				C209.7,213.4,210.7,214.4,212,214.7z"/>
			<path fill="#FF8B91" d="M237.2,210.3l1.2-6.4c0,0-1.3-3.1-4.3-1.9c-3,1.2-1.7,9,0,9.3C235.8,211.6,237.2,210.3,237.2,210.3z"/>
			<polygon fill="#00FFB6" points="238.4,204 254.5,203 255.5,200.5 237.2,202.4 			"/>
		</g>
		<path fill="#4EB799" d="M226.5,355.2c2.2,22.7-20.8,40-41.8,31c-19.6-8.4-33.9-27.1-38.2-59.3c-4.8-35.9,1.7-58.6,6.4-69.7
			c2.3-5.4,7.9-8.5,13.7-7.7c45.1,6.3,56.3,80.3,56.3,80.3S225.2,341.7,226.5,355.2z"/>
		<path fill="#FF8B91" d="M265.9,251.3c0,0,5.5-10.7,7.1-11.7c1.7-1,15.5-1.5,16.8-1.7c1.3-0.2,3.8,2.5,3.8,2.5s7.1-0.2,8,0
			c0.8,0.2,0.6,4.2-1.3,4.2c-1.9,0-5.5,1.1-5.5,1.1l-4.4,5.6c0,0-7.3,4.8-8.6,4.8s-10.1,1.7-10.1,1.7L265.9,251.3z"/>
		<path fill="#FF8B91" d="M313.5,266.5c0,0,5.5-10.7,7.1-11.7c1.7-1,15.5-1.5,16.8-1.7c1.3-0.2,3.8,2.5,3.8,2.5l2.7,1.7
			c1.7,1.1,1.8,3.5,0.1,4.6c-2.8,2-5.9,4.6-5.9,4.6s-7.3,4.8-8.6,4.8c-1.3,0-10.1,1.7-10.1,1.7L313.5,266.5z"/>
		<path fill="#1F4C3F" d="M221.9,272.6l48.4,27.3c5.6,3.1,12.4,2.9,17.7-0.6l36.8-27.1c0,0-1.8-9.2-8.9-11.3
			c-1.5-0.4-33.1,11-33.1,11c-2.1,0.9-4.6,0.7-6.5-0.7l-36.7-26.7l-17.7,23.9"/>
		<path fill="#1F4C3F" d="M231.6,255.3l35.6-8.2c7.3,0,8.4,10.4,8.4,10.4L251,274.8L231.6,255.3z"/>
		<path fill="#1F4C3F" d="M257.6,384.5c0,2.4-1.7,5.2-3.7,6.4c-2,1.2-3.7,0.2-3.7-2.1c0-2.4,1.7-5.2,3.7-6.4
			C255.9,381.2,257.6,382.1,257.6,384.5z"/>
		<path fill="#1F4C3F" d="M255.8,383.5c0,2.4-1.7,5.2-3.7,6.4s-3.7,0.2-3.7-2.1c0-2.4,1.7-5.2,3.7-6.4S255.8,381.1,255.8,383.5z"/>
		<path fill="#36E7F7" d="M277.6,358.8"/>
		<path fill="none" stroke="#FFFFFF" stroke-width="4" stroke-linecap="round" stroke-miterlimit="10" d="M287.2,351.8
			c-43.9,24.9-57,6.8-60.6-2c-0.9-2.3-1.2-4-1.2-4s-8.9-46.2-20.8-67.5c-10.1-18-23.5-29.9-44.4-30.6"/>
		<polygon fill="#2D6656" points="210.2,220.6 204.9,226.3 234.7,241.4 232.6,230.4 		"/>
	</g>
</g>
</svg>
