<svg version="1" xmlns="http://www.w3.org/2000/svg" width="1280" height="1280" viewBox="0 0 960.000000 960.000000"><path d="M443.8 31.5c-.2.2-3.9.6-8.3.9-8.8.7-10.1.9-26 3.2-6 .8-12.6 1.8-14.5 2.1-1.9.2-9.7 1.8-17.3 3.4-94.9 20.6-182 73.4-245.3 148.9-35.5 42.4-63.1 91.6-81 144.6-3 8.9-5.6 17-5.9 18-.2 1.1-1.1 4.6-2 7.9-2.2 7.8-6.2 25-7 29.5-.3 1.9-.8 4.2-1 5-.2.8-.6 3.1-.9 5-.3 1.9-.8 4.4-1 5.6-.2 1.2-.7 4.5-1.1 7.4-.4 2.9-.8 6.1-1 7-.2.9-.6 5.3-1 9.6s-.9 8.1-1 8.4c-.6 1-1.8 28.7-1.8 42 0 12.6.9 34 1.8 42 .2 1.9.6 6 1 9 1.4 13.1 4.8 34.9 6 39 .2.8.7 3.1 1 5 .8 5.1 3.3 14.9 7.1 28.7 12.7 45.7 32.2 88.2 59 128.3 20.3 30.5 37.8 51.1 68.6 80.6 4.8 4.6 17.4 15.3 28.7 24.4 10.3 8.3 37.1 26.1 52.6 35 22.5 12.8 50.1 25.1 76 33.9 14.3 4.8 38 11.3 45.5 12.6 1.9.3 4.9 1 6.5 1.5 1.7.4 6.2 1.4 10 2 7.9 1.2 11.3 1.8 15.3 2.5 4.5.7 19.1 2.4 28.2 3.2 9.1.8 57 1.1 65.7.4 2.9-.3 5.7-.7 6.3-1.1.7-.4.9-143.8.8-447.5l-.3-446.8-2.5-.4c-3-.5-60.7-1.3-61.2-.8zM454 480.2v374.9l-14.7-.6c-8.2-.3-16.1-.8-17.8-1-1.6-.3-5.5-.7-8.5-1-10.6-.8-29.6-4-42.9-7.1-3.6-.9-7.3-1.7-8.1-1.9-7.3-1.5-41.6-12.6-47.5-15.5-1.1-.5-4.9-2.1-8.5-3.6-12.2-4.9-35.9-17.2-48-24.8-12.7-8-32.4-22-41-29.2-26.1-21.9-47.1-44-64.9-68.4-2.2-3-4.4-6-4.9-6.5-1.5-1.8-14.8-22.9-18.9-30-18.5-32.1-32.8-69.3-40.7-106.5-1.4-6.3-2.8-13.5-3.1-16-.4-2.4-.8-4.7-1-5-.1-.3-.6-3.9-1-8s-.8-7.7-1-8c-2.4-4.1-2.5-74.7 0-84 .2-.8.6-4.2 1-7.5.8-8.6 5.2-31.4 8.1-42.5 1.4-5.2 2.7-10.4 3-11.6.8-4.1 9.5-28.8 14.1-39.8 8.4-20.6 21.6-45.2 34.6-64.6 5.4-8.1 20-27.7 24.2-32.5 1.4-1.7 5-5.7 7.8-9 17.2-19.7 44.8-43.9 69.2-60.6 46.9-32.2 104.2-54.1 161-61.5 2.8-.3 5.8-.8 6.7-1 1-.1 6.6-.6 12.5-1 6-.3 10.9-.7 11.1-.9.1-.1 4.5-.2 9.7-.2l9.5-.1v375zM578 221c0 96.8.2 176 .4 176 .9 0 219.6-219.2 219.6-220.1 0-1.2-23.6-24.8-32.9-32.9-4.1-3.6-8.2-7.2-9.1-8-.8-.8-3.3-2.9-5.4-4.5-2.1-1.7-4.4-3.5-5-4-.6-.6-2.7-2.2-4.6-3.5-1.9-1.3-3.7-2.7-4-3.1-.4-.5-12.6-9.3-18-12.9-32.4-22-69.9-40.7-106-53-5.2-1.7-10.2-3.4-11-3.6-.8-.2-6.2-1.7-11.9-3.4-5.8-1.6-10.8-3-11.3-3-.4 0-.8 79.2-.8 176zM732.5 355C665.4 422.2 610.3 477.3 610 477.6c-.6.7 245.2 246.4 246.5 246.4.5 0 4.7-6.2 9.1-13.8 23.1-38.8 38.5-75.8 49.3-118.4 2.2-8.5 4.2-16.5 4.5-17.9 5-26.9 6.3-35.6 8.3-56.4 1.6-16.5.8-76.1-1.2-86.5-.1-.8-.6-4.2-.9-7.5-.8-6.8-.9-7.5-3.1-20.5-.9-5.2-2.5-13.6-3.6-18.5-1.2-5-2.2-9.7-2.4-10.5-1.1-5.3-2.1-8.9-5.6-21-2.2-7.4-4.4-14.3-4.9-15.2-.6-1-1-2.4-1-3.3 0-.8-.7-2.9-1.4-4.7-.8-1.8-2.8-6.9-4.5-11.3-4.7-12.7-9.6-23.8-17.7-40-7.2-14.4-25.2-45.5-26.4-45.5-.3 0-55.4 54.9-122.5 122zM578 736.4c0 98.2.4 178.6.8 178.6.5 0 5.5-1.3 11.3-2.9 64.6-18.2 126.3-52.2 176.9-97.6 8.6-7.7 33-32.6 33-33.7 0-.6-49.9-51-111-112l-111-111v178.6z"/></svg>